PathFileType	4	(X/Y/Z)	 s02c0101.trc
DataRate	CameraRate	NumFrames	NumMarkers	Units	OrigDataRate	OrigDataStartFrame	OrigNumFrames
200	200	5	51	mm	200	1751	2000
Frame#	Time	racr			lacr			c7			jug			rlel			rdr			llel			ldr			s2			lic			ric			lasi			rasi			rpsi			lpsi			rgt			lgt			rth1			rth2			rth3			rth4			rlfc			rmfc			rsh1			rsh2			rsh3			rsh4			rlmal			rmmal			rtoe			rmt5			rmt1			lth1			lth2			lth4			lth3			llfc			lmfc			lsh1			lsh2			lsh3			lsh4			llmal			lmmal			lcal			ltoe			lmt1			lmt5			SBIKE			LBIKE			RBIKE			
		X1	Y1	Z1	X2	Y2	Z2	X3	Y3	Z3	X4	Y4	Z4	X5	Y5	Z5	X6	Y6	Z6	X7	Y7	Z7	X8	Y8	Z8	X9	Y9	Z9	X10	Y10	Z10	X11	Y11	Z11	X12	Y12	Z12	X13	Y13	Z13	X14	Y14	Z14	X15	Y15	Z15	X16	Y16	Z16	X17	Y17	Z17	X18	Y18	Z18	X19	Y19	Z19	X20	Y20	Z20	X21	Y21	Z21	X22	Y22	Z22	X23	Y23	Z23	X24	Y24	Z24	X25	Y25	Z25	X26	Y26	Z26	X27	Y27	Z27	X28	Y28	Z28	X29	Y29	Z29	X30	Y30	Z30	X31	Y31	Z31	X32	Y32	Z32	X33	Y33	Z33	X34	Y34	Z34	X35	Y35	Z35	X36	Y36	Z36	X37	Y37	Z37	X38	Y38	Z38	X39	Y39	Z39	X40	Y40	Z40	X41	Y41	Z41	X42	Y42	Z42	X43	Y43	Z43	X44	Y44	Z44	X45	Y45	Z45	X46	Y46	Z46	X47	Y47	Z47	X48	Y48	Z48	X49	Y49	Z49	X50	Y50	Z50	X51	Y51	Z51	
1751	8.7550	515.651645	1280.982566	-127.181012	505.279609	1293.631445	-491.157342	491.490426	1366.891426	-304.532646	469.845284	1225.431929	-312.693886	584.530133	1013.718886	-73.865960	725.881658	843.674043	-123.257763	541.707825	1014.067662	-558.724280	698.096507	846.952927	-489.976054	2.760381	1101.314306	-304.522302	134.343081	1119.205306	-446.688939	139.180558	1105.039349	-165.267151	178.443345	1089.666956	-421.255182	189.268822	1074.313000	-187.120590	26.520603	1143.418508	-253.510551	21.424763	1147.488015	-340.025286	107.239420	1008.903836	-133.106043	98.803715	1041.940348	-489.056112	189.175993	943.401546	-122.239913	261.185712	892.902984	-126.374304	301.624393	819.679918	-106.270347	284.195934	911.056727	-150.088981	362.662714	694.444939	-145.987155	351.969724	679.952455	-253.799049	310.899135	596.436376	-129.094985	274.444871	516.721559	-148.344642	207.293137	462.469580	-143.993846	286.621000	511.497097	-185.946274	128.265229	383.588784	-150.626107	146.669075	391.982763	-230.109955	255.215739	196.418708	-184.436750	161.571288	256.314158	-129.136450	186.417153	245.978553	-238.222357	231.329529	996.497917	-491.503672	316.938696	983.490234	-484.872573	328.839284	1013.135237	-465.110690	385.755331	926.851972	-485.324623	476.215966	877.711232	-460.266058	481.423964	848.410778	-351.137414	465.839159	776.082630	-479.800438	454.807893	690.995176	-467.195071	403.662509	617.108114	-477.526262	470.231753	685.978265	-429.928829	345.115157	516.390483	-471.301827	361.706910	512.076572	-392.995881	273.200034	470.375626	-434.987076	555.720047	419.579267	-435.821501	473.304557	428.662597	-389.145846	449.381092	411.809034	-498.143504	-162.729055	860.751717	-309.544914	37.426199	86.560897	-514.255426	33.815472	83.386563	-114.056232	
1752	8.7600	514.888698	1280.947232	-126.871966	504.861304	1293.631139	-490.931786	490.810923	1366.743524	-304.243755	469.371999	1225.318018	-312.352507	584.482924	1013.743136	-74.040541	726.114728	844.607662	-122.147792	541.799309	1014.211700	-558.281087	697.967125	846.637423	-489.618737	2.335922	1100.457010	-304.935569	134.323553	1118.069027	-446.705358	138.674221	1104.647078	-165.296778	178.564997	1088.511971	-421.517710	188.962907	1074.242070	-187.227453	26.038012	1142.648086	-253.765465	21.138318	1146.590531	-340.289822	107.252365	1008.911232	-132.820543	98.472153	1039.628134	-488.594605	190.314256	944.846519	-122.537502	263.354107	895.763446	-126.475528	305.266812	823.322040	-106.179501	286.007268	914.417858	-150.110219	368.263043	699.005520	-145.707232	357.590072	684.790594	-253.844152	315.555611	601.544502	-129.011463	276.895366	522.819463	-148.427615	208.236648	470.371473	-143.795581	288.834726	517.381295	-185.989446	127.544515	393.488876	-150.613272	146.357002	401.478469	-230.204540	250.489948	203.689511	-184.353304	158.051315	265.602991	-129.240599	188.134958	256.673062	-235.406138	230.685572	991.960962	-491.795449	315.998181	977.209324	-485.282290	328.655489	1006.333136	-465.420227	383.637181	919.139562	-485.563573	472.690095	868.437680	-460.957549	479.363773	838.108213	-353.244820	463.420899	766.360965	-480.160938	453.955438	681.085391	-467.503211	404.106959	606.313894	-477.596598	469.555189	676.435415	-430.215006	347.508690	505.087184	-471.295262	364.159687	500.801611	-392.995876	276.141045	458.136110	-435.192631	559.477821	411.107292	-435.881596	476.939534	419.256218	-389.341528	453.239651	401.933231	-498.292416	-162.759052	860.697219	-309.633436	37.436263	86.534931	-514.267399	33.796357	83.393488	-114.073865	
1753	8.7650	514.074758	1280.906414	-126.464856	504.472360	1293.620599	-490.624023	490.140469	1366.613869	-303.937587	468.900396	1225.172665	-312.010765	584.428344	1013.773148	-74.224638	726.123746	844.604869	-122.207677	542.079456	1014.306103	-557.759757	697.878256	846.278215	-489.207795	1.970118	1099.556320	-305.054910	134.257743	1116.910969	-446.863839	138.216183	1104.209765	-165.255349	178.786218	1087.166840	-421.833425	188.637260	1074.136325	-187.398449	25.624975	1141.735777	-254.079801	20.825781	1145.727622	-340.371592	107.388886	1008.740370	-132.546712	98.120105	1037.221224	-488.155322	191.530468	946.201646	-122.859720	265.540733	898.630843	-126.518114	308.896368	827.255847	-106.110294	287.884407	917.760120	-150.135147	373.916120	703.780388	-145.240956	363.340443	689.707841	-253.805999	320.018373	606.845731	-129.033628	279.565422	529.011110	-148.544150	209.685901	478.209759	-143.879881	291.184270	523.412891	-186.278238	127.191928	403.433002	-150.701433	146.363854	410.961932	-230.308020	246.267482	211.350926	-184.412438	155.105076	275.081046	-129.279035	185.026772	265.446838	-235.375293	229.931359	987.324954	-492.098839	314.947358	970.618930	-485.872655	328.329643	999.600327	-466.196998	381.304887	911.116953	-485.963556	469.654120	858.762098	-460.928444	475.757669	828.761390	-353.549100	460.622847	756.282588	-480.702768	452.712462	670.869986	-467.900635	404.200128	595.164244	-477.699857	468.601167	666.548139	-430.586247	349.410863	493.652603	-471.243925	366.210056	489.486894	-393.016035	278.897647	445.801825	-435.402026	562.731188	402.259294	-435.930240	479.978639	409.535439	-389.499184	456.576962	391.877501	-498.345811	-162.729198	860.662194	-309.764322	37.442918	86.526720	-514.274699	33.809494	83.375825	-114.067492	
1754	8.7700	513.295873	1280.867123	-126.071200	504.161025	1293.605642	-490.316471	489.476082	1366.438441	-303.661808	468.559331	1224.994800	-311.669110	584.332000	1013.774544	-74.388705	725.824743	843.676537	-123.335636	542.437166	1014.426435	-557.133223	697.850904	845.922734	-488.839930	1.619925	1098.630051	-305.395757	134.376166	1115.477074	-446.888198	137.853364	1103.756459	-165.279295	179.040179	1085.749140	-422.064020	188.455465	1074.035345	-187.542435	25.200779	1140.804458	-254.382773	20.501469	1144.457768	-340.799969	107.753895	1008.642273	-132.292877	97.818589	1034.716468	-487.753332	192.735877	947.647391	-123.006871	267.753643	901.610560	-126.568727	312.596079	831.099567	-106.059056	290.125425	921.605087	-148.968943	379.703325	708.736200	-144.953868	368.871329	695.046214	-254.041738	324.664976	612.366347	-129.098612	282.454301	535.564525	-148.635767	211.358339	486.218686	-143.954788	293.768226	529.695490	-186.429639	127.280239	413.040010	-151.294162	146.625854	420.684937	-230.437531	242.773792	219.451497	-184.318448	152.732884	284.695579	-129.319373	182.494826	274.484891	-235.274585	229.109571	982.148645	-492.425316	313.812688	963.735467	-486.429014	327.892303	992.543057	-467.102874	378.768533	902.741273	-486.342336	465.637943	849.174046	-461.169845	472.342111	818.422501	-355.480586	457.457796	745.991976	-481.356473	451.907487	660.312150	-468.729568	403.860751	583.842924	-477.847253	467.231765	656.789395	-431.048759	350.830211	482.244411	-471.217155	367.826237	478.076819	-392.948019	280.997555	433.536124	-435.347481	565.372625	393.208123	-436.009029	482.537766	399.600917	-389.494718	459.308417	381.705270	-498.440147	-162.728420	860.592937	-310.039148	37.440022	86.486172	-514.279580	33.811691	83.364360	-114.077832	
1755	8.7750	512.374129	1280.812948	-125.554172	503.939317	1293.604421	-489.918942	488.785757	1366.253207	-303.313544	468.199730	1224.749951	-311.289975	584.288337	1013.738610	-74.520812	726.005505	844.611817	-122.285214	542.872654	1014.527121	-556.445754	697.896886	845.524801	-488.583053	1.361587	1097.614986	-305.322571	134.572670	1114.067187	-446.989697	137.553383	1103.230023	-165.258028	179.239580	1084.218984	-422.283715	188.339543	1073.930430	-187.658422	24.835972	1139.722163	-254.635577	20.212671	1143.367919	-340.985673	107.895775	1008.502929	-132.067524	97.515959	1032.125013	-487.348654	193.918769	949.069436	-123.355170	269.939190	904.755309	-126.593736	316.280275	835.195203	-106.011459	291.919705	925.064299	-149.163195	385.615045	713.909205	-144.711387	374.525519	700.412863	-254.176411	329.106212	618.103476	-129.241241	285.573497	542.132171	-148.802274	213.406601	494.377242	-144.046789	296.519708	536.223356	-186.715406	127.693815	423.246404	-151.332015	147.895757	431.489101	-229.853485	239.851411	227.685239	-184.278012	150.913869	294.546272	-129.358631	180.266960	283.486039	-235.568481	228.429254	976.871066	-493.144883	312.528409	956.610289	-487.103312	327.528591	985.183159	-468.312430	376.111593	894.128842	-486.811100	461.576555	838.173121	-461.115515	468.860892	807.629713	-357.958477	453.942118	735.385806	-482.108653	449.615087	649.667540	-469.337046	403.082869	572.564137	-477.935596	465.396940	646.290717	-431.987489	351.766718	470.901045	-471.127044	368.784800	466.704865	-392.958664	282.844460	421.787680	-435.955702	567.413648	383.925402	-436.070620	484.572084	389.587805	-389.774011	461.426196	371.418061	-498.479296	-162.783835	860.630606	-309.895817	37.430069	86.463981	-514.277698	33.798603	83.362651	-114.073162	
